<svg width="26" height="28" viewBox="0 0 26 28" fill="none" xmlns="http://www.w3.org/2000/svg">
<path d="M25.8715 24.7306L24.061 19.2978H22.0743L23.1776 24.5956H3.75325L4.85651 19.2978H2.86984L1.058 24.7306C0.598415 26.1134 1.41295 27.2444 2.86984 27.2444H24.061C25.5179 27.2444 26.3324 26.1134 25.8715 24.7306ZM20.0877 7.37773C20.0877 5.62141 19.39 3.93701 18.1481 2.6951C16.9061 1.45319 15.2218 0.755493 13.4654 0.755493C11.7091 0.755493 10.0247 1.45319 8.7828 2.6951C7.54088 3.93701 6.84319 5.62141 6.84319 7.37773C6.84319 13.702 13.4654 20.6222 13.4654 20.6222C13.4654 20.6222 20.0877 13.702 20.0877 7.37773ZM9.88942 7.4572C9.88942 6.98765 9.98192 6.52271 10.1616 6.08892C10.3414 5.65513 10.6048 5.261 10.9369 4.92905C11.269 4.59709 11.6632 4.33381 12.097 4.15424C12.5309 3.97467 12.9959 3.88234 13.4654 3.88251C14.4137 3.88251 15.3231 4.2592 15.9936 4.92971C16.6641 5.60022 17.0408 6.50962 17.0408 7.45786C17.0408 8.4061 16.6641 9.31551 15.9936 9.98601C15.3231 10.6565 14.4137 11.0332 13.4654 11.0332C12.517 11.0332 11.6074 10.6565 10.9368 9.98582C10.2662 9.31519 9.88942 8.40562 9.88942 7.4572Z" fill="#32502E"/>
</svg>
