<svg width="26" height="18" viewBox="0 0 26 18" fill="none" xmlns="http://www.w3.org/2000/svg">
<path d="M22.3038 0.718481C22.1492 0.496687 21.9437 0.315598 21.7048 0.190535C21.4658 0.0654731 21.2004 0.000118157 20.9309 0H1.67586C1.23155 0.000501649 0.805577 0.17816 0.4914 0.493998C0.177223 0.809836 0.000499011 1.23806 0 1.68472V14.7413H2.15149C2.29872 15.568 2.73045 16.3163 3.37112 16.8553C4.0118 17.3943 4.82061 17.6897 5.65603 17.6897C6.49146 17.6897 7.30027 17.3943 7.94095 16.8553C8.58162 16.3163 9.01335 15.568 9.16058 14.7413H15.5584C15.7056 15.568 16.1373 16.3163 16.778 16.8553C17.4187 17.3943 18.2275 17.6897 19.0629 17.6897C19.8984 17.6897 20.7072 17.3943 21.3478 16.8553C21.9885 16.3163 22.4202 15.568 22.5675 14.7413H25.1379V5.18689C25.1383 4.92759 25.059 4.67451 24.9107 4.4623L22.3038 0.718481ZM8.58879 1.68472H16.1302V6.73889H8.58879V1.68472ZM1.67586 1.68472H6.91293V6.73889H1.67586V1.68472ZM5.65603 16.0049C5.28315 16.0049 4.91864 15.8937 4.60859 15.6854C4.29855 15.4772 4.0569 15.1812 3.9142 14.8349C3.77151 14.4885 3.73417 14.1074 3.80692 13.7398C3.87966 13.3721 4.05922 13.0344 4.32289 12.7694C4.58656 12.5043 4.9225 12.3238 5.28822 12.2507C5.65394 12.1775 6.03302 12.2151 6.37752 12.3585C6.72203 12.502 7.01648 12.7449 7.22364 13.0566C7.43081 13.3682 7.54138 13.7347 7.54138 14.1095C7.54082 14.612 7.34201 15.0938 6.98856 15.4491C6.63511 15.8044 6.15589 16.0043 5.65603 16.0049ZM19.0629 16.0049C18.69 16.0049 18.3255 15.8937 18.0155 15.6854C17.7054 15.4772 17.4638 15.1812 17.3211 14.8349C17.1784 14.4885 17.1411 14.1074 17.2138 13.7398C17.2866 13.3721 17.4661 13.0344 17.7298 12.7694C17.9935 12.5043 18.3294 12.3238 18.6951 12.2507C19.0608 12.1775 19.4399 12.2151 19.7844 12.3585C20.1289 12.502 20.4234 12.7449 20.6305 13.0566C20.8377 13.3682 20.9483 13.7347 20.9483 14.1095C20.9477 14.612 20.7489 15.0938 20.3955 15.4491C20.042 15.8044 19.5628 16.0043 19.0629 16.0049ZM23.4621 13.0566H22.4667C22.2428 12.3248 21.7913 11.6845 21.1787 11.2296C20.5661 10.7747 19.8245 10.5292 19.0629 10.5292C18.3013 10.5292 17.5598 10.7747 16.9471 11.2296C16.3345 11.6845 15.8831 12.3248 15.6592 13.0566H9.05982C8.83587 12.3248 8.38445 11.6845 7.77183 11.2296C7.1592 10.7747 6.41765 10.5292 5.65603 10.5292C4.89442 10.5292 4.15286 10.7747 3.54024 11.2296C2.92762 11.6845 2.4762 12.3248 2.25225 13.0566H1.67586V8.42361H23.4621V13.0566ZM23.4621 6.73889H17.806V1.68472H20.9309L23.4621 5.31967V6.73889Z" fill="black"/>
</svg>
