<svg width="24" height="22" viewBox="0 0 24 22" fill="none" xmlns="http://www.w3.org/2000/svg">
<path d="M21.0009 13.0577L21.0009 13.0577C20.938 13.3391 20.6944 13.5319 20.4209 13.5319H8.56021H8.10112L8.19171 13.982L8.45652 15.2976L8.51725 15.5993H8.82502H19.6852C20.0601 15.5993 20.3525 15.9567 20.2653 16.3467L20.0421 17.3448L19.9776 17.6332L20.2426 17.7639C20.8733 18.075 21.3107 18.7337 21.3107 19.4991C21.3107 20.5687 20.4589 21.4255 19.4208 21.4255C18.3827 21.4255 17.5309 20.5687 17.5309 19.4991C17.5309 18.958 17.7495 18.4708 18.1009 18.121L18.7461 17.4787H17.8357H9.35338H8.44293L9.08821 18.121C9.43959 18.4708 9.6582 18.958 9.6582 19.4991C9.6582 20.5687 8.80643 21.4255 7.76832 21.4255C6.73022 21.4255 5.87845 20.5687 5.87845 19.4991C5.87845 18.7821 6.2626 18.1588 6.83039 17.827L7.06223 17.6915L7.00924 17.4283L4.167 3.3088L4.10627 3.00709H3.79851H0.97104C0.647987 3.00709 0.375887 2.73932 0.375887 2.39627V1.73847C0.375887 1.39543 0.647987 1.12766 0.97104 1.12766H5.11937C5.3976 1.12766 5.64431 1.3272 5.7022 1.61488L5.70221 1.6149L6.07306 3.45716L6.1338 3.75886H6.44156H22.3335C22.7084 3.75886 23.0008 4.11629 22.9136 4.50631L21.0009 13.0577Z" stroke="#32502E" stroke-width="0.751773"/>
</svg>
