<svg width="195" height="260" viewBox="0 0 195 260" fill="none" xmlns="http://www.w3.org/2000/svg">
<path d="M134.37 256.363C138.997 252.947 138.515 250.737 143.511 246.366C145.62 244.51 147.953 242.939 150.456 241.688C153.759 240.066 156.139 239.65 159.465 238.833C163.852 237.735 169.576 235.988 172.527 234.631C180.462 230.982 183.676 223.115 189.644 208.501C193.737 198.473 195.742 193.377 193.477 189.26C192.935 188.275 191.262 185.704 177.684 182.104C164.191 178.524 161.317 179.862 152.559 176.572C146.088 174.149 145.054 172.44 139.459 171.224C138.232 170.958 136.015 170.549 135.877 169.635C135.763 168.855 137.169 167.972 139.856 166.84C143.943 165.127 147.881 163.473 152.94 163.303C165.047 162.888 175.883 171.174 181.412 175.424C187.357 179.978 192.314 185.237 193.268 184.362C193.727 183.948 192.696 182.558 191.979 179.553C191.165 176.149 191.555 173.981 191.881 169.194C192.121 165.698 192.307 161.119 192.228 158.723C192.002 151.911 189.027 145.415 186.302 141.888C180.75 134.719 170.659 134.115 150.466 132.894C136.051 132.024 128.839 131.59 122.989 133.884C121.411 134.503 114.207 137.459 105.641 137.986C103.567 138.112 99.8752 138.193 96.8326 135.699C96.0467 135.053 94.037 133.407 94.1955 131.734C94.4107 129.439 98.5809 128.205 108.783 126.168C120.46 123.841 126.29 122.674 130.978 122.524C139.004 122.271 145.025 122.078 152.177 124.564C162.839 128.269 165.386 129.726 165.386 129.726C168.328 131.408 170.585 133.121 171.745 132.282C173.38 131.098 171.462 125.803 171.336 125.46C169.536 120.594 167.016 120.086 162.695 114.398C159.21 109.809 156.962 105.019 156.02 103.014C153.539 97.7329 153.54 96.0444 151.424 94.0947C148.32 91.2572 144.326 91.2172 141.326 91.1317C124.04 90.6534 127.17 88.4295 116.184 89.0739C107.777 89.5649 98.7099 90.0965 88.7638 94.9863C83.1444 97.7519 76.9 102.084 75.3991 100.416C75.1947 100.19 74.8837 99.6356 75.3695 97.9497C77.0306 92.1433 83.4433 89.0225 85.3354 88.0799C95.975 82.7825 90.5155 83.1606 108.597 73.131C120.754 66.3939 126.836 63.0212 130.152 62.3853C134.132 61.6309 138.767 61.3786 140.33 58.0662C141.486 55.6228 140.418 52.6755 138.981 49.4955C133.045 36.2732 130.069 29.6623 122.784 26.1196C111.695 20.7285 100.414 26.3886 98.6594 27.2718C92.0966 30.564 87.0885 36.4341 81.8085 42.6273C81.5366 42.9505 77.8758 47.2399 72.5784 52.3162C70.2526 54.5442 68.0236 56.5275 64.6607 58.0527C61.7073 59.3908 57.3317 60.6236 56.6953 59.5179C56.1236 58.5276 58.8046 56.0584 61.7679 53.145C70.8211 44.2941 67.7772 45.8434 75.8794 38.1426C91.5225 23.2762 98.1986 21.9615 97.6783 17.1271C97.1581 12.2928 90.0675 9.30461 82.9358 6.24323C66.0482 -0.98342 50.8941 0.74043 46.1782 1.43543C33.9249 3.2373 25.5261 7.82997 19.2028 11.3645C7.69425 17.7982 -2.64713 23.5796 -8.03858 36.1945C-12.6652 47.0099 -11.3666 57.4705 -10.7637 61.9161C-10.269 65.5233 -8.67997 77.2163 -0.785131 87.974C2.95655 93.0766 6.82532 96.2066 9.73041 103.687C10.6352 106.017 11.3183 108.425 11.7695 110.874C11.9477 111.799 11.879 112.747 11.571 113.613C11.263 114.48 10.7275 115.232 10.0226 115.789L9.98432 115.817C7.93376 117.369 4.841 117.284 2.25069 115.54C1.81724 115.253 1.34552 115.036 0.852884 114.897C-1.83743 114.13 -10.1782 112.388 -21.6482 116.015C-31.9499 119.269 -36.7955 130.651 -39.6073 137.24C-46.468 153.359 -46.978 175.124 -37.3746 193.23C-30.0721 206.991 -16.2168 220.041 -6.75736 223.946C-3.91486 225.121 3.14172 227.364 9.1493 233.88C10.8254 235.711 12.5306 237.969 12.8631 237.747C13.3824 237.398 9.92751 231.776 7.30674 226.42C1.15819 213.856 -0.372497 202.975 -1.11924 197.341C-2.44766 187.272 -3.65752 178.103 1.38091 174.302C3.8872 172.404 7.7659 171.306 10.163 172.969C12.9935 174.922 12.4942 179.748 12.1346 189.143C11.6826 200.857 11.3618 209.23 12.3545 217.6C13.3617 226.127 14.0689 232.116 18.2358 238.405C23.5945 246.49 31.3544 250.067 37.5794 252.934C44.6515 256.196 50.2627 257.037 55.765 257.859C61.5325 258.722 67.9864 259.688 68.8929 257.434C69.7134 255.397 65.2256 252.701 59.9509 245.787C56.7147 241.553 54.5117 236.796 50.0898 227.28C46.0663 218.575 43.7541 213.583 41.9287 206.221C41.6352 205.034 40.9799 201.057 39.6706 193.094C38.6555 186.905 38.3653 184.724 39.209 184.305C40.8029 183.519 45.2433 189.571 45.6551 190.136C51.0622 197.578 51.9093 203.976 54.2839 212.906C57.0182 223.225 56.8394 218.259 65.1288 242.22C68.4015 251.667 69.4202 255.309 73.2204 257.703C75.38 259.062 80.1194 258.89 89.5097 258.477C93.0401 258.321 90.6521 258.35 110.902 255.361C113.534 254.97 115.066 254.753 115.622 253.537C117.025 250.459 110.227 244.997 103.636 237.035C97.2974 229.387 100.1 230.242 89.7319 214.576C89.7319 214.576 82.5512 203.717 73.5668 185.417C72.8767 183.985 71.4535 181.029 72.61 178.896C73.7665 176.763 77.2145 176.162 79.7758 176.813C82.7356 177.569 84.8978 180.058 87.7101 185.248C91.8712 192.923 93.4067 199.042 95.5422 206.234C98.102 214.873 99.3806 219.187 101.426 224.076C104.006 230.275 103.966 228.5 113.83 246.244C113.83 246.244 116.481 251.013 121.742 256.331C123.331 257.94 124.445 258.851 125.989 259.24C129.258 260.064 132.202 257.956 134.37 256.363Z" fill="#406343"/>
</svg>
