<svg width="288" height="392" viewBox="0 0 288 392" fill="none" xmlns="http://www.w3.org/2000/svg">
<mask id="path-1-inside-1_563_101" fill="white">
<path d="M130.012 2.96349C121.472 6.22212 121.329 9.49124 111.834 13.9706C107.821 15.8764 103.577 17.3069 99.197 18.2302C93.4297 19.4097 89.5783 19.1996 84.1 19.2397C76.8652 19.3196 67.2998 19.8661 62.1839 20.7891C48.4295 23.2723 40.2863 33.2619 25.1625 51.8212C14.7878 64.5559 9.63224 71.0533 11.4805 77.5984C11.9242 79.164 13.4784 83.3378 33.0518 92.9313C52.5016 102.467 57.4897 101.545 69.7258 109.093C78.7682 114.66 79.681 117.409 87.8548 120.985C89.6464 121.768 92.915 123.084 92.7602 124.415C92.6227 125.549 90.0909 126.323 85.4751 127.018C78.4566 128.062 71.6935 129.074 63.7928 127.626C44.8805 124.168 31.44 108.901 24.5904 101.08C17.2201 92.692 11.6626 83.6432 9.8328 84.5557C8.95557 84.9847 9.99246 87.2832 9.8917 91.7477C9.78159 96.8057 8.30445 99.725 5.87269 106.346C4.09398 111.183 1.96328 117.559 1.11981 120.955C-1.2729 130.61 0.718321 140.737 3.51753 146.605C9.22648 158.539 24.6078 162.755 55.3801 171.211C77.3488 177.244 88.3402 180.261 98.3211 178.988C101.013 178.645 113.357 176.891 126.832 179.009C130.094 179.524 135.842 180.642 139.549 185.164C140.506 186.335 142.955 189.32 142.036 191.619C140.778 194.775 133.825 195.118 117.21 194.579C98.1927 193.954 88.6961 193.65 81.3786 192.297C68.8492 189.974 59.4498 188.236 49.3772 182.353C34.3611 173.585 31.0037 170.688 31.0037 170.688C27.1266 167.34 24.3211 164.178 22.1873 164.971C19.1802 166.09 20.0182 174.176 20.0746 174.701C20.9027 182.144 24.5994 183.699 28.9999 193.138C32.5474 200.754 34.1003 208.241 34.751 211.374C36.4665 219.628 35.7851 222.002 38.2756 225.45C41.9392 230.476 48.1064 231.865 52.7182 232.986C79.2881 239.427 73.5471 241.51 90.8153 244.269C104.03 246.384 118.282 248.663 135.65 245.106C145.464 243.092 156.876 239.084 158.529 241.931C158.754 242.316 159.012 243.2 157.582 245.408C152.672 253.019 141.487 255.267 138.178 255.961C119.572 259.86 128.177 261.15 96.1432 269.22C74.6092 274.637 63.8351 277.35 58.4447 277.138C51.979 276.87 44.7007 275.678 40.9464 279.814C38.1729 282.865 38.6406 287.365 39.5856 292.317C43.4523 312.89 45.3975 323.179 55.2506 330.592C70.2494 341.873 89.994 337.679 93.0665 337.022C104.553 334.583 114.67 327.999 125.339 321.053C125.89 320.689 133.285 315.879 143.53 310.508C148.028 308.151 152.278 306.106 158.099 305.084C163.21 304.188 170.481 303.914 171.021 305.682C171.508 307.265 166.363 309.842 160.602 312.95C143.021 322.375 148.358 321.212 132.713 329.337C102.508 345.022 91.6421 344.643 90.5012 351.615C89.3602 358.586 99.1354 365.154 108.945 371.839C132.182 387.636 156.339 390.269 163.92 390.865C183.617 392.42 198.47 388.765 209.683 385.905C230.092 380.698 248.431 376.019 261.857 360.08C273.375 346.415 275.576 331.272 276.432 324.82C277.118 319.582 279.366 302.61 271.474 284.848C267.735 276.424 263.005 270.732 261.519 259.244C261.056 255.665 260.968 252.052 261.255 248.457C261.352 247.097 261.84 245.787 262.666 244.672C263.491 243.556 264.623 242.677 265.939 242.129L266.01 242.102C269.809 240.604 274.563 241.756 277.872 245.072C278.427 245.621 279.07 246.084 279.777 246.443C283.634 248.419 295.846 253.652 315.065 252.379C332.325 251.241 344.41 236.853 351.416 228.526C368.528 208.15 378.081 177.714 370.502 149.049C364.736 127.262 348.538 104.289 335.464 95.6409C331.536 93.0399 321.514 87.53 314.836 76.3632C312.978 73.2301 311.247 69.4847 310.643 69.6869C309.698 70.004 312.784 79.0619 314.686 87.4676C319.147 107.187 317.136 122.998 316.024 131.17C314.027 145.772 312.208 159.069 302.877 162.733C298.232 164.565 291.785 164.815 288.743 161.677C285.147 157.986 287.863 151.367 292.202 138.276C297.618 121.954 301.486 110.288 303.319 98.1867C305.192 85.8604 306.509 77.2018 302.59 66.9677C297.548 53.811 286.973 46.1924 278.49 40.0825C268.854 33.1358 260.504 30.0817 252.316 27.0893C243.734 23.9515 234.131 20.439 231.82 23.3059C229.729 25.897 235.592 31.1855 240.975 42.6676C244.281 49.701 245.777 57.1252 248.791 71.9825C251.516 85.5653 253.086 93.3576 252.949 104.318C252.925 106.085 252.338 111.897 251.16 123.531C250.239 132.573 249.811 135.736 248.336 136.044C245.552 136.617 241.113 126.625 240.703 125.693C235.328 113.424 236.592 104.146 236.511 90.7953C236.432 75.3725 234.709 82.4157 231.522 45.9553C230.258 31.5797 230.147 26.1187 225.227 21.4841C222.431 18.8524 215.024 17.513 200.319 14.9594C194.79 14.0019 198.499 14.757 165.942 12.2036C161.711 11.875 159.252 11.6682 157.901 13.193C154.49 17.0524 162.815 27.0025 169.815 40.3967C176.549 53.2668 172.554 51.1293 182.3 76.6182C182.3 76.6182 189.045 94.2848 195.588 123.016C196.08 125.26 197.093 129.891 194.444 132.505C191.795 135.118 186.214 134.812 182.511 133.041C178.232 130.991 175.887 126.77 173.622 118.533C170.27 106.353 170.356 97.2356 169.945 86.4095C169.46 73.4082 169.217 66.9142 168.019 59.3574C166.52 49.78 165.868 52.2886 157.739 24.0458C157.739 24.0458 155.555 16.4557 149.551 7.22139C147.738 4.4296 146.38 2.7763 144.146 1.71378C139.416 -0.535219 134.01 1.44629 130.012 2.96349Z"/>
</mask>
<path d="M130.012 2.96349C121.472 6.22212 121.329 9.49124 111.834 13.9706C107.821 15.8764 103.577 17.3069 99.197 18.2302C93.4297 19.4097 89.5783 19.1996 84.1 19.2397C76.8652 19.3196 67.2998 19.8661 62.1839 20.7891C48.4295 23.2723 40.2863 33.2619 25.1625 51.8212C14.7878 64.5559 9.63224 71.0533 11.4805 77.5984C11.9242 79.164 13.4784 83.3378 33.0518 92.9313C52.5016 102.467 57.4897 101.545 69.7258 109.093C78.7682 114.66 79.681 117.409 87.8548 120.985C89.6464 121.768 92.915 123.084 92.7602 124.415C92.6227 125.549 90.0909 126.323 85.4751 127.018C78.4566 128.062 71.6935 129.074 63.7928 127.626C44.8805 124.168 31.44 108.901 24.5904 101.08C17.2201 92.692 11.6626 83.6432 9.8328 84.5557C8.95557 84.9847 9.99246 87.2832 9.8917 91.7477C9.78159 96.8057 8.30445 99.725 5.87269 106.346C4.09398 111.183 1.96328 117.559 1.11981 120.955C-1.2729 130.61 0.718321 140.737 3.51753 146.605C9.22648 158.539 24.6078 162.755 55.3801 171.211C77.3488 177.244 88.3402 180.261 98.3211 178.988C101.013 178.645 113.357 176.891 126.832 179.009C130.094 179.524 135.842 180.642 139.549 185.164C140.506 186.335 142.955 189.32 142.036 191.619C140.778 194.775 133.825 195.118 117.21 194.579C98.1927 193.954 88.6961 193.65 81.3786 192.297C68.8492 189.974 59.4498 188.236 49.3772 182.353C34.3611 173.585 31.0037 170.688 31.0037 170.688C27.1266 167.34 24.3211 164.178 22.1873 164.971C19.1802 166.09 20.0182 174.176 20.0746 174.701C20.9027 182.144 24.5994 183.699 28.9999 193.138C32.5474 200.754 34.1003 208.241 34.751 211.374C36.4665 219.628 35.7851 222.002 38.2756 225.45C41.9392 230.476 48.1064 231.865 52.7182 232.986C79.2881 239.427 73.5471 241.51 90.8153 244.269C104.03 246.384 118.282 248.663 135.65 245.106C145.464 243.092 156.876 239.084 158.529 241.931C158.754 242.316 159.012 243.2 157.582 245.408C152.672 253.019 141.487 255.267 138.178 255.961C119.572 259.86 128.177 261.15 96.1432 269.22C74.6092 274.637 63.8351 277.35 58.4447 277.138C51.979 276.87 44.7007 275.678 40.9464 279.814C38.1729 282.865 38.6406 287.365 39.5856 292.317C43.4523 312.89 45.3975 323.179 55.2506 330.592C70.2494 341.873 89.994 337.679 93.0665 337.022C104.553 334.583 114.67 327.999 125.339 321.053C125.89 320.689 133.285 315.879 143.53 310.508C148.028 308.151 152.278 306.106 158.099 305.084C163.21 304.188 170.481 303.914 171.021 305.682C171.508 307.265 166.363 309.842 160.602 312.95C143.021 322.375 148.358 321.212 132.713 329.337C102.508 345.022 91.6421 344.643 90.5012 351.615C89.3602 358.586 99.1354 365.154 108.945 371.839C132.182 387.636 156.339 390.269 163.92 390.865C183.617 392.42 198.47 388.765 209.683 385.905C230.092 380.698 248.431 376.019 261.857 360.08C273.375 346.415 275.576 331.272 276.432 324.82C277.118 319.582 279.366 302.61 271.474 284.848C267.735 276.424 263.005 270.732 261.519 259.244C261.056 255.665 260.968 252.052 261.255 248.457C261.352 247.097 261.84 245.787 262.666 244.672C263.491 243.556 264.623 242.677 265.939 242.129L266.01 242.102C269.809 240.604 274.563 241.756 277.872 245.072C278.427 245.621 279.07 246.084 279.777 246.443C283.634 248.419 295.846 253.652 315.065 252.379C332.325 251.241 344.41 236.853 351.416 228.526C368.528 208.15 378.081 177.714 370.502 149.049C364.736 127.262 348.538 104.289 335.464 95.6409C331.536 93.0399 321.514 87.53 314.836 76.3632C312.978 73.2301 311.247 69.4847 310.643 69.6869C309.698 70.004 312.784 79.0619 314.686 87.4676C319.147 107.187 317.136 122.998 316.024 131.17C314.027 145.772 312.208 159.069 302.877 162.733C298.232 164.565 291.785 164.815 288.743 161.677C285.147 157.986 287.863 151.367 292.202 138.276C297.618 121.954 301.486 110.288 303.319 98.1867C305.192 85.8604 306.509 77.2018 302.59 66.9677C297.548 53.811 286.973 46.1924 278.49 40.0825C268.854 33.1358 260.504 30.0817 252.316 27.0893C243.734 23.9515 234.131 20.439 231.82 23.3059C229.729 25.897 235.592 31.1855 240.975 42.6676C244.281 49.701 245.777 57.1252 248.791 71.9825C251.516 85.5653 253.086 93.3576 252.949 104.318C252.925 106.085 252.338 111.897 251.16 123.531C250.239 132.573 249.811 135.736 248.336 136.044C245.552 136.617 241.113 126.625 240.703 125.693C235.328 113.424 236.592 104.146 236.511 90.7953C236.432 75.3725 234.709 82.4157 231.522 45.9553C230.258 31.5797 230.147 26.1187 225.227 21.4841C222.431 18.8524 215.024 17.513 200.319 14.9594C194.79 14.0019 198.499 14.757 165.942 12.2036C161.711 11.875 159.252 11.6682 157.901 13.193C154.49 17.0524 162.815 27.0025 169.815 40.3967C176.549 53.2668 172.554 51.1293 182.3 76.6182C182.3 76.6182 189.045 94.2848 195.588 123.016C196.08 125.26 197.093 129.891 194.444 132.505C191.795 135.118 186.214 134.812 182.511 133.041C178.232 130.991 175.887 126.77 173.622 118.533C170.27 106.353 170.356 97.2356 169.945 86.4095C169.46 73.4082 169.217 66.9142 168.019 59.3574C166.52 49.78 165.868 52.2886 157.739 24.0458C157.739 24.0458 155.555 16.4557 149.551 7.22139C147.738 4.4296 146.38 2.7763 144.146 1.71378C139.416 -0.535219 134.01 1.44629 130.012 2.96349Z" stroke="#406343" stroke-width="6.35593" mask="url(#path-1-inside-1_563_101)"/>
</svg>
