<svg width="25" height="24" viewBox="0 0 25 24" fill="none" xmlns="http://www.w3.org/2000/svg">
<path d="M23.5294 0H20.5882C20.1982 0 19.8242 0.158036 19.5484 0.43934C19.2726 0.720645 19.1176 1.10218 19.1176 1.5C19.1176 1.89782 19.2726 2.27936 19.5484 2.56066C19.8242 2.84196 20.1982 3 20.5882 3H22.0588V21H20.5882C20.1982 21 19.8242 21.158 19.5484 21.4393C19.2726 21.7206 19.1176 22.1022 19.1176 22.5C19.1176 22.8978 19.2726 23.2794 19.5484 23.5607C19.8242 23.842 20.1982 24 20.5882 24H23.5294C23.9194 24 24.2935 23.842 24.5693 23.5607C24.8451 23.2794 25 22.8978 25 22.5V1.5C25 1.10218 24.8451 0.720645 24.5693 0.43934C24.2935 0.158036 23.9194 0 23.5294 0ZM12.9412 5.1C12.7072 4.78174 12.3588 4.57134 11.9727 4.51508C11.5866 4.45881 11.1944 4.56131 10.8824 4.8C10.5703 5.03869 10.3641 5.39404 10.3089 5.78787C10.2537 6.18169 10.3542 6.58174 10.5882 6.9L13.2353 10.5H1.47059C1.08056 10.5 0.706514 10.658 0.430725 10.9393C0.154936 11.2206 0 11.6022 0 12C0 12.3978 0.154936 12.7794 0.430725 13.0607C0.706514 13.342 1.08056 13.5 1.47059 13.5H13.3676L10.8382 17.16C10.7254 17.3212 10.645 17.5036 10.6016 17.6967C10.5583 17.8898 10.5528 18.0898 10.5857 18.285C10.6185 18.4803 10.6889 18.667 10.7928 18.8343C10.8967 19.0016 11.0321 19.1463 11.1912 19.26C11.4412 19.438 11.7392 19.5324 12.0441 19.53C12.2774 19.5289 12.5071 19.4712 12.7143 19.3616C12.9214 19.2521 13.1 19.0939 13.2353 18.9L17.3824 12.9C17.5664 12.6431 17.6656 12.3332 17.6656 12.015C17.6656 11.6968 17.5664 11.3869 17.3824 11.13L12.9412 5.1Z" fill="#32502E"/>
</svg>
