<svg width="27" height="27" viewBox="0 0 27 27" fill="none" xmlns="http://www.w3.org/2000/svg">
<rect width="27" height="27" fill="#32502E"/>
<path d="M12.375 10.125C12.375 11.9925 10.8675 13.5 9 13.5C7.1325 13.5 5.625 11.9925 5.625 10.125C5.625 8.2575 7.1325 6.75 9 6.75C10.8675 6.75 12.375 8.2575 12.375 10.125ZM15.75 22.5H2.25V20.25C2.25 17.7638 5.27625 15.75 9 15.75C12.7238 15.75 15.75 17.7638 15.75 20.25M7.875 10.125C7.875 10.7438 8.38125 11.25 9 11.25C9.61875 11.25 10.125 10.7438 10.125 10.125C10.125 9.50625 9.61875 9 9 9C8.38125 9 7.875 9.50625 7.875 10.125ZM4.5 20.25H13.5C13.5 19.0125 11.4862 18 9 18C6.51375 18 4.5 19.0125 4.5 20.25ZM24.75 13.5V15.75H14.625V13.5M24.75 9V11.25H14.625V9M24.75 4.5V6.75H14.625V4.5H24.75Z" fill="white"/>
</svg>
