<svg width="594" height="209" viewBox="0 0 594 209" fill="none" xmlns="http://www.w3.org/2000/svg">
<path d="M8.27656 181.086V29.0043H30.6233C39.1067 29.0043 46.1763 30.8666 51.8319 34.591C57.5566 38.3155 61.8328 43.5918 64.6606 50.4199C67.4884 57.2481 68.9023 65.2832 68.9023 74.5254C68.9023 83.7676 67.4194 91.7337 64.4537 98.424C61.4879 105.114 57.1427 110.356 51.4181 114.149C45.7625 117.874 38.8308 119.909 30.6233 120.253V181.086H8.27656ZM30.6233 97.4928C34.5546 97.4928 37.6583 96.7342 39.9344 95.2168C42.2104 93.6304 43.8313 91.1475 44.7969 87.7679C45.8314 84.3883 46.3487 80.0431 46.3487 74.7323C46.3487 69.3526 45.8314 64.9729 44.7969 61.5933C43.8313 58.2137 42.176 55.7307 39.8309 54.1444C37.5549 52.558 34.4857 51.7649 30.6233 51.7649V97.4928ZM83.0889 181.086V29.0043H103.987V181.086H83.0889ZM135.776 182.741C130.948 182.741 126.775 180.293 123.258 175.396C119.74 170.499 117.981 163.016 117.981 152.946C117.981 143.221 120.05 135.393 124.189 129.461C128.396 123.53 134.672 118.391 143.018 114.046C145.639 112.667 147.846 111.425 149.639 110.322C151.432 109.218 152.536 108.183 152.95 107.218V94.803C152.95 91.9751 152.605 89.5611 151.915 87.561C151.294 85.4918 149.708 84.4573 147.156 84.4573C144.811 84.4573 143.225 85.5608 142.397 87.7679C141.57 89.906 141.156 92.5959 141.156 95.8375V101.217H120.257V96.4583C120.257 90.2509 121.464 84.9056 123.878 80.4224C126.361 75.8703 129.706 72.3873 133.914 69.9733C138.19 67.4903 143.018 66.2488 148.398 66.2488C153.571 66.2488 158.054 67.4558 161.847 69.8698C165.64 72.2149 168.572 75.491 170.641 79.6982C172.779 83.8365 173.848 88.5955 173.848 93.9753V161.429C173.848 166.464 173.986 170.396 174.262 173.223C174.538 175.982 174.883 178.603 175.296 181.086H154.812C153.915 179.983 153.364 178.362 153.157 176.224C153.019 174.085 152.95 172.672 152.95 171.982H151.501C149.777 175.155 147.57 177.741 144.88 179.741C142.259 181.741 139.224 182.741 135.776 182.741ZM144.259 162.257C146.673 162.257 148.708 161.429 150.363 159.774C152.088 158.119 152.95 156.325 152.95 154.394V127.495C147.915 129.633 144.225 132.875 141.88 137.22C139.604 141.497 138.466 146.325 138.466 151.704C138.466 154.049 138.914 156.394 139.811 158.739C140.707 161.084 142.19 162.257 144.259 162.257ZM189.747 181.086V67.9041H210.645V77.4222C213.128 75.0082 215.921 72.5597 219.025 70.0767C222.129 67.5248 224.991 66.2488 227.612 66.2488C231.06 66.2488 233.957 67.3524 236.302 69.5595C238.647 71.7665 240.406 74.5599 241.578 77.9395C242.751 81.3191 243.337 84.8021 243.337 88.3886V181.086H222.439V92.5269C222.439 90.3198 222.06 88.768 221.301 87.8713C220.542 86.9747 219.266 86.5264 217.473 86.5264C215.956 86.5264 214.645 87.0782 213.542 88.1817C212.507 89.2163 211.541 90.4578 210.645 91.9062V181.086H189.747ZM286.941 182.741C280.389 182.741 275.388 181.293 271.94 178.396C268.491 175.499 266.112 171.361 264.801 165.981C263.56 160.602 262.939 154.187 262.939 146.738V86.7333H252.386V67.9041H262.939V39.9708H283.837V67.9041H298.218V86.7333H283.837V149.739C283.837 154.153 284.493 157.429 285.803 159.567C287.114 161.636 289.252 162.671 292.217 162.671C293.528 162.671 294.666 162.567 295.631 162.36C296.666 162.153 297.494 161.912 298.114 161.636V180.776C296.735 181.327 295.218 181.776 293.562 182.121C291.976 182.534 289.769 182.741 286.941 182.741Z" fill="black"/>
<path d="M322.786 180V27.9183H345.546C353.271 27.9183 359.927 29.2977 365.513 32.0566C371.169 34.7464 375.514 38.9882 378.549 44.7818C381.653 50.5754 383.205 58.0587 383.205 67.2319C383.205 74.5429 382.239 80.9227 380.308 86.3715C378.446 91.8202 374.79 96.2688 369.341 99.7174C374.859 102.752 378.825 107.58 381.239 114.201C383.653 120.754 384.86 128.34 384.86 136.962C384.86 145.445 383.48 152.929 380.722 159.412C378.032 165.895 374.031 170.965 368.721 174.62C363.479 178.207 356.995 180 349.271 180H322.786ZM345.132 157.86C351.892 157.86 356.34 155.86 358.478 151.86C360.616 147.79 361.685 141.997 361.685 134.479C361.685 126.823 360.616 121.03 358.478 117.098C356.34 113.098 351.892 111.098 345.132 111.098V157.86ZM345.132 90.6132C351.409 90.6132 355.719 88.8889 358.065 85.4403C360.478 81.9918 361.685 76.8879 361.685 70.1287C361.685 63.3006 360.444 58.2657 357.961 55.024C355.547 51.7134 351.271 50.0581 345.132 50.0581V90.6132ZM415.433 181.655C410.605 181.655 406.432 179.207 402.915 174.31C399.397 169.413 397.638 161.93 397.638 151.86C397.638 142.135 399.708 134.307 403.846 128.375C408.053 122.443 414.329 117.305 422.675 112.96C425.296 111.58 427.503 110.339 429.296 109.235C431.089 108.132 432.193 107.097 432.607 106.132V93.7169C432.607 90.8891 432.262 88.4751 431.572 86.4749C430.952 84.4058 429.365 83.3712 426.813 83.3712C424.468 83.3712 422.882 84.4747 422.054 86.6818C421.227 88.8199 420.813 91.5098 420.813 94.7515V100.131H399.914V95.3722C399.914 89.1648 401.121 83.8195 403.535 79.3364C406.018 74.7843 409.364 71.3012 413.571 68.8872C417.847 66.4043 422.675 65.1628 428.055 65.1628C433.228 65.1628 437.711 66.3698 441.504 68.7838C445.298 71.1288 448.229 74.4049 450.298 78.6122C452.436 82.7505 453.505 87.5095 453.505 92.8892V160.343C453.505 165.378 453.643 169.309 453.919 172.137C454.195 174.896 454.54 177.517 454.954 180H434.469C433.572 178.896 433.021 177.276 432.814 175.138C432.676 172.999 432.607 171.586 432.607 170.896H431.158C429.434 174.068 427.227 176.655 424.537 178.655C421.916 180.655 418.882 181.655 415.433 181.655ZM423.916 161.171C426.33 161.171 428.365 160.343 430.02 158.688C431.745 157.033 432.607 155.239 432.607 153.308V126.409C427.572 128.547 423.882 131.789 421.537 136.134C419.261 140.41 418.123 145.238 418.123 150.618C418.123 152.963 418.571 155.308 419.468 157.653C420.364 159.998 421.847 161.171 423.916 161.171ZM496.509 181.655C491.612 181.655 487.336 180.828 483.681 179.172C480.025 177.517 476.99 175.172 474.576 172.137C472.162 169.034 470.335 165.378 469.093 161.171C467.921 156.964 467.334 152.274 467.334 147.101H486.784C486.784 151.722 487.509 155.757 488.957 159.205C490.474 162.585 492.992 164.275 496.509 164.275C499.544 164.275 501.51 162.999 502.406 160.447C503.303 157.895 503.751 154.963 503.751 151.653C503.751 147.79 502.234 143.859 499.199 139.859C496.233 135.789 493.13 132.168 489.888 128.996C484.301 123.478 479.646 118.029 475.921 112.65C472.266 107.27 470.438 100.959 470.438 93.7169C470.438 85.1645 472.68 78.2673 477.163 73.0255C481.646 67.7837 488.026 65.1628 496.302 65.1628C501.268 65.1628 505.441 65.818 508.821 67.1285C512.269 68.4389 515.028 70.4046 517.097 73.0255C519.166 75.6464 520.649 78.8536 521.546 82.647C522.511 86.4404 522.994 90.8201 522.994 95.786H503.544C503.544 92.1995 503.165 89.0958 502.406 86.4749C501.648 83.854 499.751 82.5436 496.716 82.5436C494.233 82.5436 492.474 83.6126 491.44 85.7507C490.405 87.8199 489.888 90.4753 489.888 93.7169C489.888 97.5103 490.785 100.89 492.578 103.856C494.44 106.752 497.509 110.305 501.786 114.512C507.165 119.754 512.062 125.34 516.476 131.272C520.96 137.203 523.201 143.652 523.201 150.618C523.201 155.17 522.58 159.343 521.339 163.137C520.166 166.93 518.408 170.206 516.063 172.965C513.787 175.724 510.993 177.862 507.683 179.379C504.441 180.897 500.717 181.655 496.509 181.655ZM561.44 181.655C553.094 181.655 546.508 178.793 541.68 173.068C536.921 167.275 534.541 160.205 534.541 151.86V94.9584C534.541 86.1301 536.921 78.957 541.68 73.4393C546.439 67.9216 553.094 65.1628 561.647 65.1628C567.233 65.1628 572.027 66.4388 576.027 68.9907C580.097 71.5426 583.2 75.0257 585.338 79.4398C587.477 83.785 588.546 88.751 588.546 94.3376V127.237H553.991V151.86C553.991 154.688 554.612 157.308 555.853 159.722C557.164 162.067 559.095 163.24 561.647 163.24C564.337 163.24 566.233 162.136 567.337 159.929C568.509 157.722 569.096 155.032 569.096 151.86V139.445H588.546V152.48C588.546 161.24 586.166 168.309 581.407 173.689C576.717 179 570.061 181.655 561.44 181.655ZM553.991 110.891H569.096V94.9584C569.096 91.8547 568.544 89.1648 567.44 86.8887C566.406 84.5437 564.475 83.3712 561.647 83.3712C559.026 83.3712 557.095 84.5782 555.853 86.9922C554.612 89.3372 553.991 91.9926 553.991 94.9584V110.891Z" fill="#32502E"/>
</svg>
