<svg width="23" height="23" viewBox="0 0 23 23" fill="none" xmlns="http://www.w3.org/2000/svg">
<path d="M17.8277 2.76609C17.6618 2.491 17.4278 2.26329 17.1483 2.10494C16.8687 1.94659 16.5531 1.86294 16.2319 1.86206H6.11341C5.46355 1.86206 4.85186 2.20841 4.51762 2.76609L1.99544 6.96878C1.90816 7.11348 1.86212 7.27929 1.86231 7.44827C1.86602 8.34692 2.19701 9.21343 2.79334 9.88572V17.6896C2.79334 18.7166 3.62848 19.5517 4.65541 19.5517H17.6899C18.7168 19.5517 19.552 18.7166 19.552 17.6896V9.88572C20.1483 9.21343 20.4793 8.34692 20.483 7.44827C20.4832 7.27929 20.4371 7.11348 20.3499 6.96878L17.8277 2.76609ZM18.606 7.68196C18.5486 8.13148 18.3294 8.54469 17.9894 8.84438C17.6495 9.14406 17.212 9.3097 16.7589 9.31034C15.7319 9.31034 14.8968 8.4752 14.8968 7.44827C14.8968 7.38496 14.8735 7.3291 14.8605 7.26951L14.8791 7.26578L14.1706 3.72413H16.2319L18.606 7.68196ZM10.0731 3.72413H12.2713L13.0282 7.50878C12.9956 8.50685 12.1782 9.31034 11.1727 9.31034C10.1671 9.31034 9.34969 8.50685 9.3171 7.50878L10.0731 3.72413ZM6.11341 3.72413H8.17472L7.46713 7.26578L7.48575 7.26951C7.47179 7.3291 7.44851 7.38496 7.44851 7.44827C7.44851 8.4752 6.61337 9.31034 5.58644 9.31034C5.13326 9.3097 4.69582 9.14406 4.35587 8.84438C4.01593 8.54469 3.79674 8.13148 3.73927 7.68196L6.11341 3.72413ZM9.31058 17.6896V14.8965H13.0347V17.6896H9.31058ZM14.8968 17.6896V14.8965C14.8968 13.8696 14.0617 13.0345 13.0347 13.0345H9.31058C8.28365 13.0345 7.44851 13.8696 7.44851 14.8965V17.6896H4.65541V11.0402C4.95427 11.1175 5.26244 11.1724 5.58644 11.1724C6.1151 11.1727 6.63772 11.0601 7.1194 10.8422C7.60107 10.6244 8.03069 10.3062 8.37955 9.90899C9.062 10.6836 10.0619 11.1724 11.1727 11.1724C12.2834 11.1724 13.2833 10.6836 13.9658 9.90899C14.3146 10.3062 14.7442 10.6244 15.2259 10.8422C15.7076 11.0601 16.2302 11.1727 16.7589 11.1724C17.0829 11.1724 17.391 11.1175 17.6899 11.0402V17.6896H14.8968Z" fill="black"/>
</svg>
